<svg xmlns="http://www.w3.org/2000/svg" viewBox="0 0 520 220" role="img" aria-labelledby="title desc">
  <title id="title">מוצרלה</title>
  <desc id="desc">לוגו מוצרלה בעברית עם מסגרת אורגנית כהה.</desc>
  <path d="M72 113c20-13 32-32 55-42 22-10 47-20 73-20 28 0 49 11 74 16 21 4 42 5 61 15 16 8 30 20 46 31 6 5 7 13 2 19-11 15-32 22-49 30-18 8-39 14-61 16-26 2-51-2-76-7-24-5-48-10-71-20-24-10-48-20-59-38-4-7-3-15 5-20z" fill="none" stroke="#0f172a" stroke-width="12" stroke-linecap="round" stroke-linejoin="round"/>
  <text x="260" y="128" text-anchor="middle" font-family="Arial, 'Noto Sans Hebrew', sans-serif" font-size="76" font-weight="700" fill="#1e293b">מוצרלה</text>
</svg>
